# xmcd
#
# Track frame offsets: 
#        150
#        21255
#        47866
#        70206
#        84636
#        98576
#        114686
#        129366
#        143824
#
# Disc length: 2337 seconds
#
# Revision: 0
# Processed by: cddbd v1.5.2PL0 Copyright (c) Steve Scherf et al.
# Submitted via: ExactAudioCopy v1.0b4
#
DISCID=78091f09
DTITLE=Mighty Flyers, The - The Mighty Flyers (LP)
DYEAR=1981
DGENRE=Blues
TTITLE0=Tell Me Mama
TTITLE1=Help Me
TTITLE2=Talk To Your Daughter
TTITLE3=Just A Feeling
TTITLE4=Shot From The Saddle
TTITLE5=She' s Tough
TTITLE6=Mellow Down Easy
TTITLE7=It  Ain' t Right
TTITLE8=Five Long Years
EXTD=
EXTT0=
EXTT1=
EXTT2=
EXTT3=
EXTT4=
EXTT5=
EXTT6=
EXTT7=
EXTT8=
PLAYORDER=
